<svg width="40" height="40" viewBox="0 0 40 40" fill="none" xmlns="http://www.w3.org/2000/svg">
<path d="M30.1709 1H9.82914C4.95294 1 1 5.00869 1 9.95367V30.0463C1 34.9913 4.95294 39 9.82914 39H30.1709C35.0471 39 39 34.9913 39 30.0463V9.95367C39 5.00869 35.0471 1 30.1709 1Z" fill="#11463E"/>
<path d="M13.6163 18.2388C13.6163 18.4527 13.5411 18.636 13.3907 18.7811C13.2403 18.9338 13.0598 19.0102 12.8567 19.0102H12.8343C12.6312 19.0102 12.4508 18.9338 12.3004 18.7811C12.15 18.636 12.0748 18.4527 12.0748 18.2388L12.0598 12.3348C12.0598 11.8536 11.8943 11.4411 11.5635 11.1051C11.2251 10.769 10.819 10.5933 10.3378 10.5933C9.86405 10.5933 9.458 10.769 9.12715 11.1051C8.79627 11.4488 8.63086 11.8612 8.63086 12.3424L8.6459 18.2464C8.6459 18.4603 8.5707 18.6436 8.4203 18.7887C8.2699 18.9415 8.08945 19.0178 7.88641 19.0178H7.86385C7.66084 19.0178 7.48036 18.9415 7.32996 18.7887C7.17959 18.6436 7.1044 18.4603 7.1044 18.2464L7.08936 12.3424C7.08936 11.4335 7.40516 10.6544 8.04433 9.99758C8.6835 9.356 9.44296 9.02759 10.3378 9.02759C11.2326 9.02759 12.0071 9.34838 12.6463 9.98995C13.2854 10.6315 13.6087 11.4182 13.6087 12.3271L13.6239 18.2312L13.6163 18.2388Z" fill="white"/>
<path d="M17.0004 13.236H20.0008C20.2036 13.236 20.3841 13.3048 20.5345 13.4499C20.6849 13.6026 20.7601 13.7859 20.7601 13.9998V14.0151C20.7601 14.2289 20.6849 14.4122 20.5345 14.565C20.3841 14.7101 20.2036 14.7865 20.0008 14.7865H17.0004V16.673C17.0004 16.8869 17.0756 17.0702 17.2184 17.2153C17.3688 17.3681 17.5418 17.4368 17.7524 17.4368H20.0008C20.2036 17.4368 20.3841 17.5056 20.5345 17.666C20.6849 17.8187 20.7601 18.002 20.7601 18.2159V18.2312C20.7601 18.445 20.6849 18.6283 20.5345 18.7734C20.3841 18.9262 20.2036 19.0026 20.0008 19.0026H17.7524C17.1207 19.0026 16.5794 18.7811 16.1282 18.3305C15.677 17.8722 15.4514 17.3299 15.4514 16.6807V11.3647C15.4365 10.7232 15.6621 10.1733 16.113 9.71498C16.5642 9.25671 17.1058 9.02759 17.7372 9.02759H19.9856C20.1887 9.02759 20.3692 9.09631 20.5196 9.25671C20.67 9.40185 20.7452 9.58515 20.7452 9.79899V9.81428C20.7452 10.0281 20.67 10.2114 20.5196 10.3642C20.3692 10.517 20.1887 10.5933 19.9856 10.5933H17.7372C17.5268 10.5933 17.3463 10.6697 17.2035 10.8225C17.0604 10.9752 16.9852 11.1509 16.9852 11.3647V13.2437L17.0004 13.236Z" fill="white"/>
<path fill-rule="evenodd" clip-rule="evenodd" d="M22.6174 14.0225C22.6174 14.0225 22.685 14.0607 22.7151 14.0836C22.7377 14.0989 22.7827 14.1524 22.7602 14.2211C22.7526 14.2517 22.7377 14.2746 22.7075 14.2822C22.6323 14.3051 22.6174 14.3662 22.6323 14.435C22.6399 14.4732 22.6472 14.5113 22.6549 14.5495L22.7526 14.4655C22.7526 14.4655 23.279 14.2364 23.4668 14.1524C23.6474 14.0684 24.0084 13.8774 24.1588 13.7017C24.3092 13.5261 24.8655 13.2206 24.9708 13.3733C24.8731 13.465 24.9708 13.3733 24.8731 13.465C24.783 13.549 24.5948 13.633 24.452 13.7705C24.3016 13.908 24.1211 14.0684 23.9482 14.1218C23.7752 14.1753 23.5271 14.3586 23.4068 14.4579C23.324 14.519 23.0159 14.7787 22.7075 14.9696C22.7526 15.1071 22.7827 15.2522 22.8354 15.3821C22.9858 15.2599 23.1962 15.0995 23.3618 15.0078C23.6474 14.8474 24.0986 14.603 24.2566 14.4961C24.4143 14.3968 24.8204 14.1065 25.0762 13.908C25.3392 13.7094 25.4522 13.6712 25.5274 13.5566C25.6102 13.4497 25.8282 13.1595 26.016 13.2893C25.9034 13.5032 25.7003 13.7094 25.5274 13.8774C25.3544 14.0454 25.0686 14.2058 24.9559 14.2975C24.843 14.3891 24.407 14.7099 24.2039 14.8627C24.0535 14.9773 23.482 15.3974 23.0759 15.8633C23.0835 15.8633 23.0911 15.8785 23.0984 15.8862C23.121 15.9015 23.1286 15.9244 23.121 15.9396C23.0759 16.1 23.1736 16.207 23.2415 16.3215C23.4294 16.2528 23.6851 16.1611 23.8955 16.0389C24.2791 15.8251 25.0536 15.4279 25.7377 14.7099C26.1966 14.2364 26.8432 13.8392 27.2417 13.6483C26.926 12.579 26.5802 12.0443 26.4145 11.2347C26.2943 10.639 26.2267 10.2724 26.4371 9.18018C26.392 9.21071 26.3546 9.2489 26.3244 9.30238C26.2867 9.33291 26.2492 9.3482 26.2042 9.3482C26.1137 9.35582 26.0236 9.3482 25.9335 9.3482C25.8732 9.36348 25.8056 9.3482 25.7831 9.42458C25.7831 9.43221 25.7679 9.44749 25.7603 9.45512C25.7003 9.48568 25.6476 9.47806 25.5873 9.46277C25.4823 9.43221 25.3995 9.45512 25.3243 9.5315C25.3094 9.53916 25.2942 9.55441 25.2865 9.56969C25.2567 9.58497 25.2491 9.61551 25.2342 9.64608C25.1964 9.67661 25.1514 9.68427 25.1063 9.68427C25.0235 9.67661 24.9483 9.69955 24.888 9.75299C24.8506 9.75299 24.828 9.78356 24.7979 9.80647C24.4295 10.0738 24.091 10.3793 23.7902 10.7154C23.7676 10.723 23.7527 10.7383 23.7527 10.7612C23.7076 10.7994 23.6699 10.8452 23.6401 10.8987C23.5572 10.998 23.4744 11.1049 23.4068 11.2195C23.2564 11.4409 23.1286 11.6777 23.0232 11.9221C22.9931 11.9832 22.9633 12.0443 22.948 12.1055C22.9255 12.136 22.9106 12.1742 22.903 12.2124C22.8881 12.2429 22.8728 12.2735 22.8728 12.304C22.8728 12.304 22.8728 12.3193 22.8655 12.327C22.8503 12.3728 22.8278 12.4186 22.8202 12.4721C22.7751 12.579 22.745 12.6936 22.73 12.8081C22.7151 12.8311 22.7151 12.854 22.7151 12.8769C22.6999 12.9074 22.6999 12.938 22.6926 12.9685C22.6247 13.2893 22.5797 13.5414 22.5873 13.8698C22.5873 13.908 22.5873 13.9538 22.6247 13.992L22.6174 14.0225Z" fill="#EB914B"/>
<path fill-rule="evenodd" clip-rule="evenodd" d="M32.4756 15.1608C32.4454 14.9011 32.0095 15.1226 31.874 15.1531C31.7388 15.176 31.498 15.3823 31.4605 15.2142C31.5056 15.0309 31.7388 14.9545 32.1072 14.7789C32.3252 14.6719 32.5359 14.5039 32.6786 14.3817C32.6936 14.2366 32.7012 14.0914 32.7012 13.9463C32.6485 13.9845 32.6034 14.0303 32.5432 14.0685C32.1748 14.3206 31.3327 14.6185 31.0242 14.6872C30.7161 14.756 30.7234 14.6719 30.7688 14.6032C30.8513 14.5421 31.8289 14.0914 32.1446 13.9005C32.3855 13.7554 32.566 13.4193 32.6485 13.2589C32.6184 13.0985 32.5733 12.9382 32.5282 12.7854C32.5282 12.7396 32.5133 12.7014 32.4908 12.6708C32.4832 12.6479 32.4756 12.625 32.4683 12.6021C32.4454 12.5334 32.4229 12.457 32.3855 12.3959C32.3702 12.3653 32.3629 12.3348 32.3477 12.3042C32.2274 12.0445 32.0847 11.8001 31.8965 11.5786C31.8816 11.5404 31.8667 11.4946 31.8213 11.487C31.6861 11.3418 31.5659 11.1891 31.4605 11.0134C31.4002 10.8988 31.2651 10.8683 31.1597 10.7843C31.122 10.7461 31.1372 10.6315 31.0994 10.5933C31.0845 10.5551 31.062 10.5093 31.0319 10.4788C30.9868 10.4177 30.9341 10.3718 30.8513 10.3642C30.844 10.326 30.8063 10.3184 30.7761 10.3107C30.7536 10.2955 30.7234 10.2802 30.7009 10.2649C30.6482 10.242 30.6108 10.1962 30.5733 10.158C30.5207 10.1045 30.4604 10.0511 30.4001 10.0052C30.1222 10.0587 29.7611 10.2573 29.7084 10.3107C29.4904 10.494 29.2572 10.6468 29.1144 10.6773C29.1595 10.4406 29.3851 10.242 29.5279 10.1045C29.6709 9.96704 29.8137 9.79137 29.8137 9.79137C29.8137 9.79137 29.8439 9.74555 29.8813 9.68445C29.8664 9.67679 29.8512 9.66916 29.8363 9.66154C29.7988 9.64626 29.7535 9.63097 29.716 9.61569C29.6557 9.58515 29.5732 9.56987 29.5205 9.53934C29.5053 9.53934 29.498 9.52405 29.4828 9.5164C29.4679 9.5164 29.4603 9.50114 29.4454 9.49349C29.3324 9.4171 29.295 9.32547 29.122 9.2949C28.9564 9.22617 28.7533 9.20326 28.5804 9.16507C28.4075 9.10397 28.2272 9.08106 28.0391 9.05815C27.9188 9.0505 27.8059 9.03521 27.6856 9.02759C27.6031 9.02759 27.5279 9.02759 27.4451 9.02759C27.355 9.21855 27.1519 9.84484 27.5054 10.9981C27.5879 10.9829 28.0016 10.9141 28.1143 10.7461C28.2345 10.5551 28.4227 10.3718 28.6105 10.4635C28.6105 10.4635 28.4827 10.7232 27.8287 11.3495C27.7608 11.3953 27.7081 11.4259 27.6631 11.4411C27.7383 11.6397 27.8287 11.8383 27.9414 12.0598L28.0918 12.0063C28.0918 12.0063 28.2422 11.9758 28.43 11.8536C28.6181 11.7314 29.1446 11.3647 29.3476 11.1738C29.5507 10.9905 30.0996 10.5551 30.31 10.7079C30.3776 10.7766 30.1295 10.8148 29.716 11.212C29.3023 11.6092 28.3399 12.5028 28.3849 12.8083C28.4075 12.877 28.6182 12.7778 28.8136 12.6785C29.0091 12.5868 29.5279 12.182 29.6633 12.0598C29.7687 11.9605 29.874 11.8536 29.874 11.8536C29.874 11.8536 29.9416 11.8383 29.874 11.9605C29.8137 12.0827 29.5355 12.3959 29.0617 12.8847C28.7835 13.1749 28.6407 13.3048 28.5731 13.3659C28.6258 13.4881 28.6708 13.6103 28.7083 13.7401C28.8514 13.6637 29.0995 13.4957 29.5129 13.1291C30.2348 12.4875 30.4982 12.2737 30.6784 12.2126C30.8589 12.1515 31.0093 12.1591 31.0169 12.2126C30.9643 12.3042 30.8967 12.35 30.8589 12.373C30.8288 12.3882 30.5207 12.5945 30.3478 12.7854C30.1672 12.984 29.7008 13.4957 29.4603 13.6943C29.2797 13.847 28.9865 14.0685 28.8438 14.2977C28.9491 14.9469 28.8739 15.6267 28.43 16.337C27.6558 17.5667 26.6255 18.4603 26.3247 18.7047C26.3472 18.7047 26.3698 18.72 26.3923 18.72C26.5804 18.7658 26.7534 18.8345 26.9412 18.8651C27.0015 18.8956 27.0767 18.888 27.1367 18.9186C27.3096 18.9415 27.4825 18.9186 27.6558 18.9262C27.7081 18.9262 27.7608 18.9415 27.8059 18.9109C27.8059 18.9109 27.8059 18.9033 27.8059 18.8956C27.8585 18.8956 27.9188 18.8956 27.9715 18.8727C28.1444 18.8651 28.3097 18.8345 28.4678 18.7811C28.5506 18.7811 28.6258 18.7429 28.701 18.72C28.7609 18.7047 28.8212 18.6818 28.8812 18.6665C28.9113 18.6589 28.9415 18.6436 28.964 18.636C28.964 18.636 28.9716 18.636 28.9789 18.636C29.0316 18.6207 29.0843 18.613 29.1369 18.5825C29.3175 18.529 29.498 18.4603 29.6633 18.3763C29.7385 18.3534 29.7988 18.3075 29.8588 18.2617C29.8588 18.2617 29.874 18.2541 29.8813 18.2464C30.0393 18.2006 30.1596 18.1013 30.2799 18.002C30.5356 17.8722 30.8063 17.7653 31.0242 17.5667C31.0319 17.559 31.0471 17.559 31.0544 17.5514C31.122 17.5437 31.1597 17.4979 31.1899 17.4445C31.3101 17.3299 31.4228 17.2077 31.4456 17.032C31.4529 17.0167 31.4605 17.0091 31.4605 16.9938C31.4681 16.9556 31.4907 16.9251 31.4831 16.8869C31.5132 16.8487 31.5433 16.8105 31.5732 16.7723C31.6335 16.7189 31.6937 16.6578 31.7537 16.6043C31.7537 16.6043 31.7689 16.589 31.7762 16.589C31.7988 16.5814 31.814 16.5661 31.8213 16.5432C31.8213 16.5432 31.8441 16.5203 31.8591 16.505C32.0694 16.2682 32.1675 15.978 32.2877 15.6878C32.3103 15.6649 32.3179 15.6419 32.3179 15.6114C32.3179 15.5885 32.3328 15.5732 32.3404 15.5579C32.3553 15.535 32.3702 15.5045 32.3702 15.4739C32.4004 15.3899 32.4305 15.3059 32.453 15.2219C32.4305 15.2219 32.4156 15.2066 32.408 15.1608H32.4756ZM32.3553 12.3577C32.3553 12.3577 32.3553 12.3577 32.3553 12.3653C32.3553 12.3653 32.3553 12.3653 32.3553 12.3806C32.3553 12.3806 32.3553 12.3653 32.3553 12.3577Z" fill="#EB914B"/>
<path fill-rule="evenodd" clip-rule="evenodd" d="M27.5202 14.8322C27.4599 14.5344 27.3999 14.267 27.3396 14.0303C27.2045 14.1066 27.0541 14.2059 26.8735 14.3358C26.3021 14.7635 25.5199 15.4356 25.2191 15.6036C24.9183 15.7717 24.0686 16.1536 23.8731 16.3216C23.7678 16.4132 23.5723 16.5278 23.4746 16.6806C23.5124 16.734 23.5498 16.7799 23.5876 16.8333C23.6326 16.9097 23.6853 16.9785 23.738 17.0472C24.3094 16.7493 25.4825 16.1154 25.7531 15.9626C26.0689 15.787 26.535 15.3822 26.6029 15.3516C26.6705 15.3287 26.6479 15.4967 26.4525 15.7106C26.2494 15.9244 25.7681 16.3903 25.4146 16.5813C25.0614 16.7722 24.5725 16.8868 24.2644 17.2763C24.2117 17.3375 24.1663 17.4062 24.1213 17.4673C24.219 17.5666 24.3094 17.6888 24.4297 17.7422C24.595 17.8186 24.7454 17.9179 24.9034 17.9943C24.9336 18.0325 24.9786 18.0401 25.0161 18.063C25.1515 18.1547 25.2794 18.2463 25.4146 18.3456C25.505 18.4067 25.5875 18.4755 25.6929 18.5137C25.7306 18.5442 25.7757 18.5595 25.8131 18.5671C26.3246 18.1241 27.881 16.7493 27.5126 14.817L27.5202 14.8322Z" fill="#EB914B"/>
<path d="M12.5109 22.2655C12.8493 22.3571 13.0223 22.5786 13.0223 22.9224V22.9376C13.0223 23.1591 12.9319 23.3425 12.7591 23.4799C12.6387 23.5716 12.5109 23.625 12.3681 23.625C12.3079 23.625 12.2477 23.6251 12.1801 23.6021C11.9319 23.541 11.6838 23.5105 11.4281 23.5105C10.601 23.5105 9.90165 23.8084 9.32264 24.4041C8.74363 24.9998 8.45038 25.7178 8.45038 26.558C8.45038 27.3981 8.74363 28.1161 9.33016 28.7042C9.91669 29.2923 10.616 29.5825 11.4432 29.5825C11.6988 29.5825 11.947 29.552 12.1951 29.4909C12.2553 29.4756 12.3154 29.468 12.3756 29.468C12.5185 29.468 12.6463 29.5138 12.7666 29.6055C12.9471 29.7429 13.0372 29.9186 13.0372 30.1477V30.163C13.0372 30.5143 12.8643 30.7435 12.526 30.8351C12.1725 30.9268 11.8116 30.9726 11.4432 30.9726C10.2475 30.9726 9.21736 30.5449 8.36766 29.6818C7.51796 28.8187 7.08936 27.78 7.08936 26.5656C7.08936 25.3512 7.51044 24.3048 8.36014 23.4417C9.20987 22.5786 10.2325 22.1433 11.4281 22.1433C11.7966 22.1433 12.1575 22.1891 12.5109 22.2808V22.2655Z" fill="white"/>
<path d="M20.4363 30.2626C20.4363 30.4535 20.3687 30.6139 20.2335 30.7438C20.098 30.8812 19.94 30.95 19.7598 30.95H19.7446C19.564 30.95 19.4063 30.8812 19.2708 30.7438C19.1357 30.6139 19.0678 30.4535 19.0678 30.2626V27.7421H16.0299V30.2626C16.0299 30.4535 15.97 30.6139 15.8345 30.7438C15.699 30.8812 15.5413 30.95 15.3608 30.95H15.3458C15.1653 30.95 15.0073 30.8812 14.8721 30.7514C14.7366 30.6216 14.669 30.4612 14.669 30.2702V25.046C14.6538 24.2364 14.9397 23.549 15.5035 22.9761C16.0677 22.4033 16.7442 22.1207 17.5339 22.113C18.331 22.113 19.0078 22.3956 19.5716 22.9608C20.1355 23.5337 20.4214 24.2211 20.4214 25.0307V30.2549L20.4363 30.2626ZM19.0678 26.3597V25.0383C19.0678 24.6106 18.9174 24.2516 18.6242 23.9461C18.3234 23.6483 17.9626 23.4955 17.5416 23.4955C17.1202 23.4955 16.767 23.6483 16.4662 23.9538C16.1727 24.2593 16.0299 24.6182 16.0299 25.046V26.3673H19.0678V26.3597Z" fill="white"/>
<path d="M23.6997 25.8325H26.0229C26.2035 25.8325 26.3615 25.8936 26.4967 26.0234C26.6321 26.1609 26.6997 26.3213 26.6997 26.5123V26.5275C26.6997 26.7185 26.6321 26.8789 26.4967 27.0087C26.3615 27.1462 26.2035 27.2149 26.0229 27.2149H23.6997V30.2624C23.6997 30.4534 23.6318 30.6137 23.4966 30.7436C23.3611 30.8811 23.2031 30.9498 23.0229 30.9498H23.0076C22.8274 30.9498 22.6694 30.8811 22.5339 30.7436C22.3987 30.6137 22.3308 30.4534 22.3308 30.2624L22.3159 24.1751C22.3159 23.6022 22.5114 23.1211 22.9099 22.7163C23.3084 22.3115 23.7822 22.1052 24.3463 22.1052H26.0531C26.2336 22.1052 26.3916 22.1663 26.5268 22.2962C26.6623 22.4337 26.7299 22.5941 26.7299 22.785V22.8003C26.7299 22.9912 26.6623 23.1516 26.5268 23.2891C26.3916 23.4189 26.2336 23.4877 26.0531 23.4877H24.3463C24.1582 23.4877 24.0005 23.5564 23.8726 23.6939C23.7447 23.8314 23.6768 23.9918 23.6768 24.1827V25.8478L23.6997 25.8325Z" fill="white"/>
<path d="M29.5802 25.8249H32.2344C32.4149 25.8249 32.5729 25.886 32.7081 26.0158C32.8436 26.1533 32.9112 26.3137 32.9112 26.5046C32.9112 26.7032 32.8436 26.8636 32.7081 27.0011C32.5729 27.1309 32.4149 27.1996 32.2344 27.1996H29.5802V28.8647C29.5802 29.0557 29.6477 29.216 29.7756 29.3459C29.9035 29.4757 30.0612 29.5445 30.2493 29.5445H32.2344C32.4149 29.5445 32.5729 29.6056 32.7081 29.743C32.8436 29.8805 32.9112 30.0409 32.9112 30.2319V30.2471C32.9112 30.4381 32.8436 30.5985 32.7081 30.7283C32.5729 30.8658 32.4149 30.9345 32.2344 30.9345H30.2493C29.6855 30.9345 29.2118 30.7436 28.8132 30.3388C28.4144 29.934 28.2189 29.4528 28.2116 28.88V24.1751C28.204 23.6022 28.3995 23.1211 28.798 22.7163C29.1965 22.3115 29.6703 22.1052 30.2344 22.1052H32.2195C32.4 22.1052 32.5577 22.1663 32.6932 22.3038C32.8284 22.4337 32.8963 22.5941 32.8963 22.785V22.8003C32.8963 22.9912 32.8284 23.1516 32.7008 23.2891C32.5653 23.4266 32.4073 23.4953 32.2271 23.4953H30.2417C30.0539 23.4953 29.8959 23.5641 29.768 23.7015C29.6401 23.8314 29.5725 23.9918 29.5725 24.1827V25.8478L29.5802 25.8249Z" fill="white"/>
<path d="M30.1709 1H9.82914C4.95294 1 1 5.0087 1 9.95367V30.0463C1 34.9913 4.95294 39 9.82914 39H30.1709C35.0471 39 39 34.9913 39 30.0463V9.95367C39 5.0087 35.0471 1 30.1709 1Z" stroke="#B29171" stroke-width="2"/>
</svg>
