<svg width="113" height="40" viewBox="0 0 113 40" fill="none" xmlns="http://www.w3.org/2000/svg">
<path d="M60.456 30.336C59.0187 30.336 57.7587 30.084 56.676 29.58C55.5933 29.076 54.744 28.3573 54.128 27.424C53.5307 26.4907 53.2227 25.38 53.204 24.092H56.34C56.3587 25.1373 56.7227 26.024 57.432 26.752C58.1413 27.48 59.14 27.844 60.428 27.844C61.5667 27.844 62.4533 27.5733 63.088 27.032C63.7413 26.472 64.068 25.7627 64.068 24.904C64.068 24.2133 63.9093 23.6533 63.592 23.224C63.2933 22.7947 62.8733 22.44 62.332 22.16C61.8093 21.88 61.2027 21.628 60.512 21.404C59.8213 21.18 59.0933 20.9373 58.328 20.676C56.816 20.172 55.6773 19.5187 54.912 18.716C54.1653 17.9133 53.792 16.8587 53.792 15.552C53.7733 14.4507 54.0253 13.4893 54.548 12.668C55.0893 11.8467 55.836 11.212 56.788 10.764C57.7587 10.2973 58.888 10.064 60.176 10.064C61.4453 10.064 62.556 10.2973 63.508 10.764C64.4787 11.2307 65.2347 11.884 65.776 12.724C66.3173 13.5453 66.5973 14.5067 66.616 15.608H63.48C63.48 15.104 63.3493 14.628 63.088 14.18C62.8267 13.7133 62.444 13.3307 61.94 13.032C61.436 12.7333 60.82 12.584 60.092 12.584C59.1587 12.5653 58.384 12.7987 57.768 13.284C57.1707 13.7693 56.872 14.4413 56.872 15.3C56.872 16.0653 57.096 16.6533 57.544 17.064C57.992 17.4747 58.608 17.82 59.392 18.1C60.176 18.3613 61.072 18.6693 62.08 19.024C63.0507 19.3413 63.9187 19.724 64.684 20.172C65.4493 20.62 66.056 21.208 66.504 21.936C66.9707 22.664 67.204 23.588 67.204 24.708C67.204 25.6973 66.952 26.6213 66.448 27.48C65.944 28.32 65.188 29.0107 64.18 29.552C63.172 30.0747 61.9307 30.336 60.456 30.336ZM75.6009 30C74.2383 30 73.1556 29.6733 72.3529 29.02C71.5503 28.348 71.1489 27.1627 71.1489 25.464V18.604H68.7689V16.112H71.1489L71.5129 12.584H74.1169V16.112H78.0369V18.604H74.1169V25.464C74.1169 26.2293 74.2756 26.7613 74.5929 27.06C74.9289 27.34 75.4983 27.48 76.3009 27.48H77.8969V30H75.6009ZM85.2412 30.336C84.0652 30.336 83.0946 30.14 82.3292 29.748C81.5639 29.356 80.9946 28.8427 80.6212 28.208C80.2479 27.5547 80.0612 26.8453 80.0612 26.08C80.0612 24.736 80.5839 23.672 81.6292 22.888C82.6746 22.104 84.1679 21.712 86.1092 21.712H89.7492V21.46C89.7492 20.3773 89.4506 19.5653 88.8532 19.024C88.2746 18.4827 87.5186 18.212 86.5852 18.212C85.7639 18.212 85.0452 18.4173 84.4292 18.828C83.8319 19.22 83.4679 19.808 83.3372 20.592H80.3692C80.4626 19.584 80.7986 18.7253 81.3772 18.016C81.9746 17.288 82.7212 16.7373 83.6172 16.364C84.5319 15.972 85.5306 15.776 86.6132 15.776C88.5546 15.776 90.0572 16.2893 91.1212 17.316C92.1853 18.324 92.7173 19.7053 92.7173 21.46V30H90.1412L89.8892 27.62C89.4972 28.3853 88.9279 29.0293 88.1812 29.552C87.4346 30.0747 86.4546 30.336 85.2412 30.336ZM85.8292 27.928C86.6319 27.928 87.3039 27.7413 87.8452 27.368C88.4052 26.976 88.8346 26.4627 89.1332 25.828C89.4506 25.1933 89.6466 24.4933 89.7212 23.728H86.4172C85.2412 23.728 84.4012 23.9333 83.8972 24.344C83.4119 24.7547 83.1692 25.268 83.1692 25.884C83.1692 26.5187 83.4026 27.0227 83.8692 27.396C84.3546 27.7507 85.0079 27.928 85.8292 27.928ZM96.3179 30V18.604H94.3299V16.112H96.3179V14.096C96.3179 12.584 96.6912 11.5013 97.4379 10.848C98.2032 10.176 99.2765 9.84 100.658 9.84H102.114V12.36H101.106C100.453 12.36 99.9859 12.5 99.7059 12.78C99.4259 13.0413 99.2859 13.4893 99.2859 14.124V16.112H102.478V18.604H99.2859V30H96.3179ZM105.438 30V18.604H103.45V16.112H105.438V14.096C105.438 12.584 105.811 11.5013 106.558 10.848C107.323 10.176 108.396 9.84 109.778 9.84H111.234V12.36H110.226C109.572 12.36 109.106 12.5 108.826 12.78C108.546 13.0413 108.406 13.4893 108.406 14.124V16.112H111.598V18.604H108.406V30H105.438Z" fill="white"/>
<path d="M30.1709 1H9.82914C4.95294 1 1 5.00869 1 9.95367V30.0463C1 34.9913 4.95294 39 9.82914 39H30.1709C35.0471 39 39 34.9913 39 30.0463V9.95367C39 5.00869 35.0471 1 30.1709 1Z" fill="#11463E"/>
<path d="M13.6163 18.2385C13.6163 18.4524 13.5411 18.6357 13.3907 18.7808C13.2403 18.9336 13.0598 19.01 12.8567 19.01H12.8343C12.6312 19.01 12.4508 18.9336 12.3004 18.7808C12.15 18.6357 12.0748 18.4524 12.0748 18.2385L12.0598 12.3345C12.0598 11.8533 11.8943 11.4409 11.5635 11.1048C11.2251 10.7688 10.819 10.5931 10.3378 10.5931C9.86405 10.5931 9.458 10.7688 9.12715 11.1048C8.79627 11.4485 8.63086 11.861 8.63086 12.3421L8.6459 18.2462C8.6459 18.46 8.5707 18.6433 8.4203 18.7885C8.2699 18.9412 8.08945 19.0176 7.88641 19.0176H7.86385C7.66084 19.0176 7.48036 18.9412 7.32996 18.7885C7.17959 18.6433 7.1044 18.46 7.1044 18.2462L7.08936 12.3421C7.08936 11.4333 7.40516 10.6542 8.04433 9.99734C8.6835 9.35576 9.44296 9.02734 10.3378 9.02734C11.2326 9.02734 12.0071 9.34813 12.6463 9.98971C13.2854 10.6313 13.6087 11.418 13.6087 12.3269L13.6239 18.2309L13.6163 18.2385Z" fill="white"/>
<path d="M17.0004 13.2358H20.0008C20.2036 13.2358 20.3841 13.3045 20.5345 13.4496C20.6849 13.6024 20.7601 13.7857 20.7601 13.9996V14.0148C20.7601 14.2287 20.6849 14.412 20.5345 14.5648C20.3841 14.7099 20.2036 14.7863 20.0008 14.7863H17.0004V16.6728C17.0004 16.8867 17.0756 17.07 17.2184 17.2151C17.3688 17.3678 17.5418 17.4366 17.7524 17.4366H20.0008C20.2036 17.4366 20.3841 17.5053 20.5345 17.6657C20.6849 17.8185 20.7601 18.0018 20.7601 18.2156V18.2309C20.7601 18.4448 20.6849 18.6281 20.5345 18.7732C20.3841 18.9259 20.2036 19.0023 20.0008 19.0023H17.7524C17.1207 19.0023 16.5794 18.7808 16.1282 18.3302C15.677 17.8719 15.4514 17.3296 15.4514 16.6804V11.3645C15.4365 10.723 15.6621 10.173 16.113 9.71474C16.5642 9.25647 17.1058 9.02734 17.7372 9.02734H19.9856C20.1887 9.02734 20.3692 9.09607 20.5196 9.25646C20.67 9.40161 20.7452 9.58491 20.7452 9.79875V9.81403C20.7452 10.0279 20.67 10.2112 20.5196 10.364C20.3692 10.5167 20.1887 10.5931 19.9856 10.5931H17.7372C17.5268 10.5931 17.3463 10.6695 17.2035 10.8222C17.0604 10.975 16.9852 11.1507 16.9852 11.3645V13.2434L17.0004 13.2358Z" fill="white"/>
<path fill-rule="evenodd" clip-rule="evenodd" d="M22.6174 14.0225C22.6174 14.0225 22.685 14.0607 22.7151 14.0836C22.7377 14.0989 22.7827 14.1524 22.7602 14.2211C22.7526 14.2517 22.7377 14.2746 22.7075 14.2822C22.6323 14.3051 22.6174 14.3662 22.6323 14.435C22.6399 14.4732 22.6472 14.5113 22.6549 14.5495L22.7526 14.4655C22.7526 14.4655 23.279 14.2364 23.4668 14.1524C23.6474 14.0684 24.0084 13.8774 24.1588 13.7017C24.3092 13.5261 24.8655 13.2206 24.9708 13.3733C24.8731 13.465 24.9708 13.3733 24.8731 13.465C24.783 13.549 24.5948 13.633 24.452 13.7705C24.3016 13.908 24.1211 14.0684 23.9482 14.1218C23.7752 14.1753 23.5271 14.3586 23.4068 14.4579C23.324 14.519 23.0159 14.7787 22.7075 14.9696C22.7526 15.1071 22.7827 15.2522 22.8354 15.3821C22.9858 15.2599 23.1962 15.0995 23.3618 15.0078C23.6474 14.8474 24.0986 14.603 24.2566 14.4961C24.4143 14.3968 24.8204 14.1065 25.0762 13.908C25.3392 13.7094 25.4522 13.6712 25.5274 13.5566C25.6102 13.4497 25.8282 13.1595 26.016 13.2893C25.9034 13.5032 25.7003 13.7094 25.5274 13.8774C25.3544 14.0454 25.0686 14.2058 24.9559 14.2975C24.843 14.3891 24.407 14.7099 24.2039 14.8627C24.0535 14.9773 23.482 15.3974 23.0759 15.8633C23.0835 15.8633 23.0911 15.8785 23.0984 15.8862C23.121 15.9015 23.1286 15.9244 23.121 15.9396C23.0759 16.1 23.1736 16.207 23.2415 16.3215C23.4294 16.2528 23.6851 16.1611 23.8955 16.0389C24.2791 15.8251 25.0536 15.4279 25.7377 14.7099C26.1966 14.2364 26.8432 13.8392 27.2417 13.6483C26.926 12.579 26.5802 12.0443 26.4145 11.2347C26.2943 10.639 26.2267 10.2724 26.4371 9.18018C26.392 9.21071 26.3546 9.2489 26.3244 9.30238C26.2867 9.33291 26.2492 9.3482 26.2042 9.3482C26.1137 9.35582 26.0236 9.3482 25.9335 9.3482C25.8732 9.36348 25.8056 9.3482 25.7831 9.42458C25.7831 9.43221 25.7679 9.44749 25.7603 9.45512C25.7003 9.48568 25.6476 9.47806 25.5873 9.46277C25.4823 9.43221 25.3995 9.45512 25.3243 9.5315C25.3094 9.53916 25.2942 9.55441 25.2865 9.56969C25.2567 9.58497 25.2491 9.61551 25.2342 9.64608C25.1964 9.67661 25.1514 9.68427 25.1063 9.68427C25.0235 9.67661 24.9483 9.69955 24.888 9.75299C24.8506 9.75299 24.828 9.78356 24.7979 9.80647C24.4295 10.0738 24.091 10.3793 23.7902 10.7154C23.7676 10.723 23.7527 10.7383 23.7527 10.7612C23.7076 10.7994 23.6699 10.8452 23.6401 10.8987C23.5572 10.998 23.4744 11.1049 23.4068 11.2195C23.2564 11.4409 23.1286 11.6777 23.0232 11.9221C22.9931 11.9832 22.9633 12.0443 22.948 12.1055C22.9255 12.136 22.9106 12.1742 22.903 12.2124C22.8881 12.2429 22.8728 12.2735 22.8728 12.304C22.8728 12.304 22.8728 12.3193 22.8655 12.327C22.8503 12.3728 22.8278 12.4186 22.8202 12.4721C22.7751 12.579 22.745 12.6936 22.73 12.8081C22.7151 12.8311 22.7151 12.854 22.7151 12.8769C22.6999 12.9074 22.6999 12.938 22.6926 12.9685C22.6247 13.2893 22.5797 13.5414 22.5873 13.8698C22.5873 13.908 22.5873 13.9538 22.6247 13.992L22.6174 14.0225Z" fill="#EB914B"/>
<path fill-rule="evenodd" clip-rule="evenodd" d="M32.4756 15.1605C32.4454 14.9008 32.0095 15.1223 31.874 15.1529C31.7388 15.1758 31.498 15.382 31.4605 15.214C31.5056 15.0307 31.7388 14.9543 32.1072 14.7786C32.3252 14.6717 32.5359 14.5037 32.6786 14.3815C32.6936 14.2363 32.7012 14.0912 32.7012 13.9461C32.6485 13.9843 32.6034 14.0301 32.5432 14.0683C32.1748 14.3204 31.3327 14.6182 31.0242 14.687C30.7161 14.7557 30.7234 14.6717 30.7688 14.6029C30.8513 14.5418 31.8289 14.0912 32.1446 13.9003C32.3855 13.7552 32.566 13.4191 32.6485 13.2587C32.6184 13.0983 32.5733 12.9379 32.5282 12.7851C32.5282 12.7393 32.5133 12.7011 32.4908 12.6706C32.4832 12.6477 32.4756 12.6247 32.4683 12.6018C32.4454 12.5331 32.4229 12.4567 32.3855 12.3956C32.3702 12.3651 32.3629 12.3345 32.3477 12.304C32.2274 12.0443 32.0847 11.7999 31.8965 11.5784C31.8816 11.5402 31.8667 11.4944 31.8213 11.4867C31.6861 11.3416 31.5659 11.1889 31.4605 11.0132C31.4002 10.8986 31.2651 10.8681 31.1597 10.7841C31.122 10.7459 31.1372 10.6313 31.0994 10.5931C31.0845 10.5549 31.062 10.5091 31.0319 10.4785C30.9868 10.4174 30.9341 10.3716 30.8513 10.364C30.844 10.3258 30.8063 10.3181 30.7761 10.3105C30.7536 10.2952 30.7234 10.2799 30.7009 10.2647C30.6482 10.2418 30.6108 10.1959 30.5733 10.1577C30.5207 10.1043 30.4604 10.0508 30.4001 10.005C30.1222 10.0584 29.7611 10.257 29.7084 10.3105C29.4904 10.4938 29.2572 10.6466 29.1144 10.6771C29.1595 10.4403 29.3851 10.2418 29.5279 10.1043C29.6709 9.9668 29.8137 9.79112 29.8137 9.79112C29.8137 9.79112 29.8439 9.7453 29.8813 9.6842C29.8664 9.67655 29.8512 9.66892 29.8363 9.66129C29.7988 9.64601 29.7535 9.63073 29.716 9.61545C29.6557 9.58491 29.5732 9.56963 29.5205 9.53909C29.5053 9.53909 29.498 9.52381 29.4828 9.51615C29.4679 9.51615 29.4603 9.5009 29.4454 9.49324C29.3324 9.41686 29.295 9.32522 29.122 9.29466C28.9564 9.22593 28.7533 9.20302 28.5804 9.16483C28.4075 9.10373 28.2272 9.08082 28.0391 9.05791C27.9188 9.05025 27.8059 9.03497 27.6856 9.02734C27.6031 9.02734 27.5279 9.02734 27.4451 9.02734C27.355 9.2183 27.1519 9.8446 27.5054 10.9979C27.5879 10.9826 28.0016 10.9139 28.1143 10.7459C28.2345 10.5549 28.4227 10.3716 28.6105 10.4633C28.6105 10.4633 28.4827 10.723 27.8287 11.3492C27.7608 11.3951 27.7081 11.4256 27.6631 11.4409C27.7383 11.6395 27.8287 11.8381 27.9414 12.0596L28.0918 12.0061C28.0918 12.0061 28.2422 11.9755 28.43 11.8533C28.6181 11.7311 29.1446 11.3645 29.3476 11.1736C29.5507 10.9903 30.0996 10.5549 30.31 10.7077C30.3776 10.7764 30.1295 10.8146 29.716 11.2118C29.3023 11.6089 28.3399 12.5025 28.3849 12.808C28.4075 12.8768 28.6182 12.7775 28.8136 12.6782C29.0091 12.5866 29.5279 12.1818 29.6633 12.0596C29.7687 11.9603 29.874 11.8533 29.874 11.8533C29.874 11.8533 29.9416 11.8381 29.874 11.9603C29.8137 12.0825 29.5355 12.3956 29.0617 12.8844C28.7835 13.1747 28.6407 13.3045 28.5731 13.3656C28.6258 13.4878 28.6708 13.61 28.7083 13.7399C28.8514 13.6635 29.0995 13.4955 29.5129 13.1288C30.2348 12.4873 30.4982 12.2734 30.6784 12.2123C30.8589 12.1512 31.0093 12.1588 31.0169 12.2123C30.9643 12.304 30.8967 12.3498 30.8589 12.3727C30.8288 12.388 30.5207 12.5942 30.3478 12.7851C30.1672 12.9837 29.7008 13.4955 29.4603 13.6941C29.2797 13.8468 28.9865 14.0683 28.8438 14.2974C28.9491 14.9466 28.8739 15.6264 28.43 16.3367C27.6558 17.5664 26.6255 18.46 26.3247 18.7044C26.3472 18.7044 26.3698 18.7197 26.3923 18.7197C26.5804 18.7655 26.7534 18.8343 26.9412 18.8648C27.0015 18.8954 27.0767 18.8877 27.1367 18.9183C27.3096 18.9412 27.4825 18.9183 27.6558 18.9259C27.7081 18.9259 27.7608 18.9412 27.8059 18.9107C27.8059 18.9107 27.8059 18.903 27.8059 18.8954C27.8585 18.8954 27.9188 18.8954 27.9715 18.8725C28.1444 18.8648 28.3097 18.8343 28.4678 18.7808C28.5506 18.7808 28.6258 18.7426 28.701 18.7197C28.7609 18.7044 28.8212 18.6815 28.8812 18.6662C28.9113 18.6586 28.9415 18.6433 28.964 18.6357C28.964 18.6357 28.9716 18.6357 28.9789 18.6357C29.0316 18.6204 29.0843 18.6128 29.1369 18.5822C29.3175 18.5288 29.498 18.46 29.6633 18.376C29.7385 18.3531 29.7988 18.3073 29.8588 18.2614C29.8588 18.2614 29.874 18.2538 29.8813 18.2462C30.0393 18.2003 30.1596 18.1011 30.2799 18.0018C30.5356 17.8719 30.8063 17.765 31.0242 17.5664C31.0319 17.5588 31.0471 17.5588 31.0544 17.5511C31.122 17.5435 31.1597 17.4977 31.1899 17.4442C31.3101 17.3296 31.4228 17.2074 31.4456 17.0318C31.4529 17.0165 31.4605 17.0089 31.4605 16.9936C31.4681 16.9554 31.4907 16.9249 31.4831 16.8867C31.5132 16.8485 31.5433 16.8103 31.5732 16.7721C31.6335 16.7186 31.6937 16.6575 31.7537 16.6041C31.7537 16.6041 31.7689 16.5888 31.7762 16.5888C31.7988 16.5811 31.814 16.5659 31.8213 16.543C31.8213 16.543 31.8441 16.52 31.8591 16.5048C32.0694 16.268 32.1675 15.9777 32.2877 15.6875C32.3103 15.6646 32.3179 15.6417 32.3179 15.6111C32.3179 15.5882 32.3328 15.5729 32.3404 15.5577C32.3553 15.5347 32.3702 15.5042 32.3702 15.4736C32.4004 15.3896 32.4305 15.3056 32.453 15.2216C32.4305 15.2216 32.4156 15.2063 32.408 15.1605H32.4756ZM32.3553 12.3574C32.3553 12.3574 32.3553 12.3574 32.3553 12.3651C32.3553 12.3651 32.3553 12.3651 32.3553 12.3803C32.3553 12.3803 32.3553 12.3651 32.3553 12.3574Z" fill="#EB914B"/>
<path fill-rule="evenodd" clip-rule="evenodd" d="M27.5202 14.8322C27.4599 14.5344 27.3999 14.267 27.3396 14.0303C27.2045 14.1066 27.0541 14.2059 26.8735 14.3358C26.3021 14.7635 25.5199 15.4356 25.2191 15.6036C24.9183 15.7717 24.0686 16.1536 23.8731 16.3216C23.7678 16.4132 23.5723 16.5278 23.4746 16.6806C23.5124 16.734 23.5498 16.7799 23.5876 16.8333C23.6326 16.9097 23.6853 16.9785 23.738 17.0472C24.3094 16.7493 25.4825 16.1154 25.7531 15.9626C26.0689 15.787 26.535 15.3822 26.6029 15.3516C26.6705 15.3287 26.6479 15.4967 26.4525 15.7106C26.2494 15.9244 25.7681 16.3903 25.4146 16.5813C25.0614 16.7722 24.5725 16.8868 24.2644 17.2763C24.2117 17.3375 24.1663 17.4062 24.1213 17.4673C24.219 17.5666 24.3094 17.6888 24.4297 17.7422C24.595 17.8186 24.7454 17.9179 24.9034 17.9943C24.9336 18.0325 24.9786 18.0401 25.0161 18.063C25.1515 18.1547 25.2794 18.2463 25.4146 18.3456C25.505 18.4067 25.5875 18.4755 25.6929 18.5137C25.7306 18.5442 25.7757 18.5595 25.8131 18.5671C26.3246 18.1241 27.881 16.7493 27.5126 14.817L27.5202 14.8322Z" fill="#EB914B"/>
<path d="M12.5109 22.2655C12.8493 22.3571 13.0223 22.5786 13.0223 22.9224V22.9376C13.0223 23.1591 12.9319 23.3425 12.7591 23.4799C12.6387 23.5716 12.5109 23.625 12.3681 23.625C12.3079 23.625 12.2477 23.6251 12.1801 23.6021C11.9319 23.541 11.6838 23.5105 11.4281 23.5105C10.601 23.5105 9.90165 23.8084 9.32264 24.4041C8.74363 24.9998 8.45038 25.7178 8.45038 26.558C8.45038 27.3981 8.74363 28.1161 9.33016 28.7042C9.91669 29.2923 10.616 29.5825 11.4432 29.5825C11.6988 29.5825 11.947 29.552 12.1951 29.4909C12.2553 29.4756 12.3154 29.468 12.3756 29.468C12.5185 29.468 12.6463 29.5138 12.7666 29.6055C12.9471 29.7429 13.0372 29.9186 13.0372 30.1477V30.163C13.0372 30.5143 12.8643 30.7435 12.526 30.8351C12.1725 30.9268 11.8116 30.9726 11.4432 30.9726C10.2475 30.9726 9.21736 30.5449 8.36766 29.6818C7.51796 28.8187 7.08936 27.78 7.08936 26.5656C7.08936 25.3512 7.51044 24.3048 8.36014 23.4417C9.20987 22.5786 10.2325 22.1433 11.4281 22.1433C11.7966 22.1433 12.1575 22.1891 12.5109 22.2808V22.2655Z" fill="white"/>
<path d="M20.4363 30.2626C20.4363 30.4535 20.3687 30.6139 20.2335 30.7438C20.098 30.8812 19.94 30.95 19.7598 30.95H19.7446C19.564 30.95 19.4063 30.8812 19.2708 30.7438C19.1357 30.6139 19.0678 30.4535 19.0678 30.2626V27.7421H16.0299V30.2626C16.0299 30.4535 15.97 30.6139 15.8345 30.7438C15.699 30.8812 15.5413 30.95 15.3608 30.95H15.3458C15.1653 30.95 15.0073 30.8812 14.8721 30.7514C14.7366 30.6216 14.669 30.4612 14.669 30.2702V25.046C14.6538 24.2364 14.9397 23.549 15.5035 22.9761C16.0677 22.4033 16.7442 22.1207 17.5339 22.113C18.331 22.113 19.0078 22.3956 19.5716 22.9608C20.1355 23.5337 20.4214 24.2211 20.4214 25.0307V30.2549L20.4363 30.2626ZM19.0678 26.3597V25.0383C19.0678 24.6106 18.9174 24.2516 18.6242 23.9461C18.3234 23.6483 17.9626 23.4955 17.5416 23.4955C17.1202 23.4955 16.767 23.6483 16.4662 23.9538C16.1727 24.2593 16.0299 24.6182 16.0299 25.046V26.3673H19.0678V26.3597Z" fill="white"/>
<path d="M23.6997 25.8325H26.0229C26.2035 25.8325 26.3615 25.8936 26.4967 26.0234C26.6321 26.1609 26.6997 26.3213 26.6997 26.5123V26.5275C26.6997 26.7185 26.6321 26.8789 26.4967 27.0087C26.3615 27.1462 26.2035 27.2149 26.0229 27.2149H23.6997V30.2624C23.6997 30.4534 23.6318 30.6137 23.4966 30.7436C23.3611 30.8811 23.2031 30.9498 23.0229 30.9498H23.0076C22.8274 30.9498 22.6694 30.8811 22.5339 30.7436C22.3987 30.6137 22.3308 30.4534 22.3308 30.2624L22.3159 24.1751C22.3159 23.6022 22.5114 23.1211 22.9099 22.7163C23.3084 22.3115 23.7822 22.1052 24.3463 22.1052H26.0531C26.2336 22.1052 26.3916 22.1663 26.5268 22.2962C26.6623 22.4337 26.7299 22.5941 26.7299 22.785V22.8003C26.7299 22.9912 26.6623 23.1516 26.5268 23.2891C26.3916 23.4189 26.2336 23.4877 26.0531 23.4877H24.3463C24.1582 23.4877 24.0005 23.5564 23.8726 23.6939C23.7447 23.8314 23.6768 23.9918 23.6768 24.1827V25.8478L23.6997 25.8325Z" fill="white"/>
<path d="M29.5802 25.8249H32.2344C32.4149 25.8249 32.5729 25.886 32.7081 26.0158C32.8436 26.1533 32.9112 26.3137 32.9112 26.5046C32.9112 26.7032 32.8436 26.8636 32.7081 27.0011C32.5729 27.1309 32.4149 27.1996 32.2344 27.1996H29.5802V28.8647C29.5802 29.0557 29.6477 29.216 29.7756 29.3459C29.9035 29.4757 30.0612 29.5445 30.2493 29.5445H32.2344C32.4149 29.5445 32.5729 29.6056 32.7081 29.743C32.8436 29.8805 32.9112 30.0409 32.9112 30.2319V30.2471C32.9112 30.4381 32.8436 30.5985 32.7081 30.7283C32.5729 30.8658 32.4149 30.9345 32.2344 30.9345H30.2493C29.6855 30.9345 29.2118 30.7436 28.8132 30.3388C28.4144 29.934 28.2189 29.4528 28.2116 28.88V24.1751C28.204 23.6022 28.3995 23.1211 28.798 22.7163C29.1965 22.3115 29.6703 22.1052 30.2344 22.1052H32.2195C32.4 22.1052 32.5577 22.1663 32.6932 22.3038C32.8284 22.4337 32.8963 22.5941 32.8963 22.785V22.8003C32.8963 22.9912 32.8284 23.1516 32.7008 23.2891C32.5653 23.4266 32.4073 23.4953 32.2271 23.4953H30.2417C30.0539 23.4953 29.8959 23.5641 29.768 23.7015C29.6401 23.8314 29.5725 23.9918 29.5725 24.1827V25.8478L29.5802 25.8249Z" fill="white"/>
<path d="M30.1709 1H9.82914C4.95294 1 1 5.0087 1 9.95367V30.0463C1 34.9913 4.95294 39 9.82914 39H30.1709C35.0471 39 39 34.9913 39 30.0463V9.95367C39 5.0087 35.0471 1 30.1709 1Z" stroke="#B29171" stroke-width="2"/>
</svg>
